<svg width="423" height="300" fill="none" xmlns="http://www.w3.org/2000/svg" class="sc-kOokqr jCiuZr"><circle cx="378" cy="15" r="12.5" stroke="#FFD652" stroke-width="5"></circle><path d="M391 167.522c4.5-11 15-21.001 8 3-7.751 26.574 12.607-14.222 19-15.5 5-1.001-16.5 33 3.5 19.5" stroke="#83DB83" stroke-width="2" stroke-linecap="round" stroke-linejoin="round"></path><rect x="149" y="78.314" width="16" height="16" rx="4" transform="rotate(-45 149 78.314)" fill="#70B2FF"></rect><path d="M315.062 165.077c-4.443 0-8.835-.893-12.197-2.615l.628-1.223c7.974 4.086 22.717 3.151 27.915-3.732 8.867-11.73 4.745-26.18-12.595-44.166l.989-.952c17.89 18.558 22.044 33.585 12.705 45.947-3.458 4.57-10.511 6.741-17.445 6.741zM290.88 61.084c-3.866 0-8.336-1.9-12.659-5.505a.684.684 0 01-.087-.967.684.684 0 01.966-.087c5.656 4.718 11.469 6.348 15.549 4.37 2.4-1.164 3.793-3.486 3.715-6.206-.138-4.974-4.741-9.838-12.316-13.012a.686.686 0 01.531-1.264c8.089 3.39 13.008 8.711 13.159 14.244.091 3.275-1.59 6.073-4.489 7.479-1.323.637-2.798.948-4.369.948zm-66.145 2.463c-2.514 7.827-5.061 15.874-4.584 24.082.476 8.207 4.667 16.731 12.224 19.973 4.31 1.846 9.215 1.8 13.841 1.044 4.396-5.363 6.558-12.499 5.876-19.4-.678-6.903-4.196-13.48-9.554-17.881" fill="#FF5773"></path><path d="M233.139 80.388c-9.096-.023-16.649-5.863-17.569-13.594-.811-6.829 3.884-15.485 19.497-19.29a.687.687 0 01.325 1.332c-14.743 3.595-19.199 11.55-18.457 17.793.838 7.04 7.804 12.362 16.204 12.38a.69.69 0 010 1.379z" fill="#FF5773"></path><path d="M188.988 195.067l-3.046 6.229s-2.876-24-3.197-34.914c-.362-12.247.687-13.03-.696-23.839-1.388-10.804-6.16-25.273-9.055-29.702-1.649-2.523-3.096-5.605-4.04-7.799-.673-1.567-2.793-1.773-3.783-.385-.957 1.342-1.685 3.238-1.172 5.693.604 2.872 3.499 7.264 4.497 10.387 1.823 5.693 1.654 7.411 1.654 7.411s-5.95-3.101-11.368-.028c-5.093 2.89-3.87 5.945-3.87 5.945s-5.633 1.732-5.555 5.176c-2.964 2.001-4.2 5.871.192 12.389 3.508 5.212 8.212 6.897 8.212 6.897s3.852 6.673 3.852 14.203c0 20.972-4.48 58.189 3.833 69.978 8.143 11.547 28.451 8.977 50.01-29.468 19.401-34.602-5.616-26.889-5.616-26.889l-20.852 8.716z" fill="#FFB487"></path><path d="M260.207 53.518c-2.547-23.78 29.807-23.72 34.048-4.57 4.085 18.452-27.416 22.556-36.723 8.22" fill="#FF5773"></path><path d="M263.299 57.74c12.888-4.4 27.7.592 29.825 15.678 3.106 22.021 10.672 26.44 21.091 33.948 19.296 13.9 25.658 54.612-17.843 55.189-55.474.737-50.898-10.731-55.799-11.784-9.531-2.043-30.315-28.511-3.339-48.393 26.711-19.69 26.065-44.637 26.065-44.637z" fill="#FF5773"></path><path d="M227.977 177.026c.536 5.972 8.652-.802 11.428.179 6.92 2.441 29.229-22.287 35.248-30.197-2.016-9.769-1.251-36.979-1.251-36.979l-27.315 15.073-1.498 16.049c-.064 2.34-15.096 5.931-15.952 6.98-.577 2.482-2.382 28.597-.66 28.895z" fill="#FFB487"></path><path d="M270.26 118.142c-.11-.871-.21-1.677-.297-2.41l-10.182 2.121-13.685 6.352-.659 7.979c13.337-.893 21.558-9.815 24.823-14.042z" fill="#D47455"></path><path d="M238.484 70.366c-5.482 5.734-8.931 21.631-9.416 29.266-.435 5.744 2.24 19.937 15.183 24.792 12.297 4.617 28.497-3.444 32.706-15.801l4.942-13.223s-8.84 3.468-6.916-18.961c-11.492-9.045-29.322-15.06-36.499-6.073z" fill="#FFB487"></path><path d="M262.961 95.867c.308-2.235-.694-4.22-2.238-4.432-1.543-.212-3.044 1.428-3.352 3.663-.307 2.236.695 4.22 2.239 4.432 1.543.213 3.044-1.427 3.351-3.663z" fill="#252833"></path><path d="M267.196 91.12a7.52 7.52 0 01-1.223 1.424c-.467.43-.998.815-1.576 1.131a7.66 7.66 0 01-1.868.747c-.664.187-1.356.256-2.057.288a1.155 1.155 0 01-1.213-1.104 1.155 1.155 0 011.452-1.177l.032.01c.508.137 1.039.26 1.584.279a6.224 6.224 0 001.667-.115 7.186 7.186 0 001.663-.536 7.363 7.363 0 001.539-.948zm-27.765 1.3c.144-2.252-1.001-4.158-2.556-4.257-1.555-.1-2.932 1.645-3.076 3.897-.143 2.252 1.001 4.158 2.556 4.257 1.555.1 2.932-1.646 3.076-3.897z" fill="#252833"></path><path d="M231.436 86.846c.302.44.696.792 1.108 1.094.417.298.861.536 1.319.729a8.25 8.25 0 001.415.425c.238.056.486.083.719.124l.728.069.042.004a1.166 1.166 0 11-.619 2.208l-.787-.385c-.257-.146-.513-.28-.756-.44a9.645 9.645 0 01-1.374-1.053 7.726 7.726 0 01-1.104-1.287c-.307-.467-.563-.962-.691-1.488z" fill="#252833"></path><path d="M244.415 102.697a.692.692 0 01-.284-.059c-.911-.412-3.05-1.553-3.293-3.206-.078-.527.018-1.315.902-2.084 1.557-1.351 4.104-5.19 4.301-9.724a.684.684 0 111.369.06c-.219 5.001-2.977 9.142-4.772 10.704-.504.435-.458.746-.444.847.091.641 1.122 1.53 2.5 2.153a.69.69 0 01.344.911.684.684 0 01-.623.398zm2.977 7.337c-1.956 0-3.696-.591-4.543-1.177a.918.918 0 01-.238-1.273.917.917 0 011.273-.238c.975.668 5.528 2.051 8.299-1.278a.92.92 0 011.291-.119c.39.325.44.902.119 1.291-1.754 2.112-4.103 2.794-6.201 2.794z" fill="#D47455"></path><path d="M242.51 82.916a.685.685 0 01-.435-.156c-3.82-3.119-8.968-2.253-9.023-2.244a.692.692 0 01-.797-.559.69.69 0 01.559-.797c.238-.04 5.826-.975 10.126 2.533a.685.685 0 01.097.967.644.644 0 01-.527.256z" fill="#252833"></path><path d="M244.594 141.156c-8.478 4.246-29.862.714-40.726 22.415-10.864 21.7-15.613 33.219-15.613 33.219l24.306 17.001 12.252 30.594 102.363 22.91 21.055-48.998s-12.723-38.55-24.403-52.583c-11.679-14.033-45.067-25.259-49.171-25.937-22.575 13.173-30.063 1.379-30.063 1.379z" fill="#2787F5"></path><path d="M312.488 225.45a.69.69 0 01-.628-.407l-15.05-33.517a.687.687 0 011.251-.563l15.05 33.516a.686.686 0 01-.344.907.592.592 0 01-.279.064zm-99.762-10.706h-.009a.687.687 0 01-.678-.696c.156-10.695 1.731-16.237 4.118-24.632.609-2.152 1.3-4.589 2.024-7.31a.69.69 0 01.838-.49.688.688 0 01.49.838 381.44 381.44 0 01-2.029 7.333c-2.354 8.29-3.911 13.763-4.062 24.274a.702.702 0 01-.692.683z" fill="#135094"></path><path d="M247.314 205.99a.686.686 0 01-.673-.568c-3.385-18.851 1.017-37.877 5.272-56.275l.252-1.09-.124.069c-1.85 1.008-3.595 1.96-6.568 2.125-5.033.284-7.566-1.772-8.258-3.787-.586-1.718.037-3.518 1.59-4.59 2.51-1.731 7.616-1.557 14.463 4.063a20.636 20.636 0 012.29-.935c7.026-2.097 11.615-1.575 13.292 1.507.861 1.585.998 2.867.403 3.816-.669 1.067-2.167 1.552-4.457 1.438-3.522-.174-8.912-1.864-11.239-3.628l-.307 1.324c-4.223 18.265-8.592 37.153-5.258 55.725a.683.683 0 01-.678.806zm6.971-59.013c1.663 1.296 6.756 3.224 10.575 3.412 1.681.082 2.858-.206 3.225-.797.385-.614-.032-1.658-.449-2.428-1.676-3.087-7.269-2.166-11.67-.852-.609.206-1.163.431-1.681.665zm-11.963-4.727c-1.145 0-2.065.284-2.743.751-1.049.724-1.457 1.878-1.072 3.014.527 1.543 2.615 3.105 6.879 2.862 2.666-.151 4.205-.989 5.986-1.96.179-.096.362-.197.545-.298-4.016-3.197-7.268-4.369-9.595-4.369z" fill="#393B52"></path><path d="M255.206 192.915a.687.687 0 01-.687-.677c-.096-7.26-.362-14.808-.623-22.113-.256-7.31-.526-14.867-.623-22.14a.687.687 0 111.375-.018c.096 7.259.361 14.807.622 22.112.257 7.31.527 14.867.623 22.14a.685.685 0 01-.678.696h-.009z" fill="#393B52"></path><path d="M164.324 151.456c-.375 0-.811-.078-1.305-.288-3.934-1.663-8.276-14.977-8.762-16.493a.684.684 0 111.305-.417c1.26 3.943 5.144 14.441 7.988 15.645.811.344 1.173.115 1.292.037.783-.495 1.021-2.166 1.044-2.716a.686.686 0 01.714-.659c.38.013.674.334.66.71-.009.288-.151 2.848-1.676 3.819a2.3 2.3 0 01-1.26.362z" fill="#D47455"></path><path d="M158.562 154.063c-.256 0-.522-.014-.806-.046-1.933-.206-6.398-4.553-8.473-14.098a.682.682 0 01.527-.815.683.683 0 01.815.527c2.043 9.403 6.311 12.92 7.278 13.021 2.184.234 3.467-.632 4.025-2.725a.687.687 0 01.843-.486.687.687 0 01.486.843c-.472 1.768-1.677 3.779-4.695 3.779z" fill="#D47455"></path><path d="M155.183 157.002h-.11a.685.685 0 01-.673-.701c.009-.38.32-.696.7-.673.49.009 1.209-.064 1.764-.472.458-.334.719-.87.65-1.337a.686.686 0 111.36-.197c.138.971-.334 2.006-1.204 2.638-.655.486-1.516.742-2.487.742z" fill="#D47455"></path><path d="M186.483 201.3a27.039 27.039 0 011.594 12.756z" fill="#FFB487"></path><path d="M188.076 214.743c-.027 0-.055 0-.082-.004a.686.686 0 01-.6-.765 26.221 26.221 0 00-1.553-12.426.689.689 0 011.283-.494 27.684 27.684 0 011.635 13.08.691.691 0 01-.683.609z" fill="#D47455"></path><path d="M163.999 51.74h-.041a.917.917 0 01-.875-.957l1.053-23.907a.917.917 0 111.832.083l-1.053 23.907a.917.917 0 01-.916.875zm18.549 11.524a.916.916 0 01-.577-1.626l9.503-7.662a.916.916 0 011.15 1.424l-9.504 7.663a.89.89 0 01-.572.201zm-45.933-2.414a.923.923 0 01-.596-.22l-7.699-6.568a.916.916 0 111.191-1.392l7.699 6.572c.385.33.431.907.101 1.291a.935.935 0 01-.696.316z" fill="#252833"></path><path d="M233.331 100.526c-5.12 0-9.288-4.168-9.288-9.288 0-5.121 4.168-9.289 9.288-9.289 5.121 0 9.289 4.168 9.289 9.288 0 5.121-4.164 9.289-9.289 9.289zm0-16.291a7.003 7.003 0 00-6.998 6.998 7.003 7.003 0 006.998 6.998 7.004 7.004 0 006.999-6.998 7.004 7.004 0 00-6.999-6.998zm26.088 19.883c-5.12 0-9.288-4.168-9.288-9.289 0-5.12 4.168-9.288 9.288-9.288 5.121 0 9.288 4.168 9.288 9.288s-4.167 9.289-9.288 9.289zm0-16.287a7.003 7.003 0 00-6.998 6.998 7.004 7.004 0 006.998 6.999 7.004 7.004 0 006.998-6.999 7.003 7.003 0 00-6.998-6.998z" fill="#fff"></path><path d="M267.732 94.92a1.141 1.141 0 01-1.14-1.08 1.14 1.14 0 011.081-1.205l14.166-.783a1.142 1.142 0 011.204 1.08 1.14 1.14 0 01-1.081 1.206l-14.166.783h-.064z" fill="#fff"></path><path d="M289.309 62.856c-.687 0-1.37-.307-1.819-.898-4.167-5.436-16.433-12.567-26.175-11.367a2.292 2.292 0 01-.563-4.548c11.501-1.42 25.442 6.686 30.375 13.126a2.292 2.292 0 01-.426 3.21 2.25 2.25 0 01-1.392.477z" fill="#FFD54F"></path><path d="M193.742 274.1l-37.854-.43-2.909-10.214 35.761-.513 5.002 11.157zm33.897-63.013c10.03 9.792 18.421 28.14 25.579 49.877l-31.877 3.714c-1.969-16.598-12.673-44.87-28.281-59.375l34.579 5.784z" fill="#E5F1FF"></path><path d="M184.687 144.732c-.353 0-.715-.091-1.04-.284l-46.002-26.939a2.068 2.068 0 01-.737-2.822 2.063 2.063 0 012.821-.737l46.002 26.94c.98.577 1.31 1.836.738 2.821a2.069 2.069 0 01-1.782 1.021z" fill="#252833"></path><path d="M132.86 111.982c.824.16 1.616.38 2.409.595l1.172.353c.385.128.765.261 1.145.398.376.142.797.211 1.196.312.398.1.742.297 1.026.595.284.298.531.65.737 1.072.202.43.376.907.444 1.562a.313.313 0 01-.188.316 4.71 4.71 0 01-1.589.343 4.155 4.155 0 01-1.291-.151 2.11 2.11 0 01-1.008-.627c-.279-.303-.536-.642-.838-.907-.298-.271-.596-.541-.889-.825l-.861-.87c-.563-.6-1.126-1.195-1.653-1.85a.196.196 0 01.027-.275.176.176 0 01.161-.041z" fill="#252833"></path><path d="M173.36 156.317c-6.316-1.494-7.016-10.145-7.85-13.466-.953-3.801-3.307-4.488-4.415-8.244-.476-1.612.417-3.467 1.53-4.653.746-.797 2.019-.747 2.748.069 3.261 3.664 9.989 9.16 12.219 11.56" fill="#FFB487"></path><path d="M173.36 156.316c-6.316-1.493-7.016-10.145-7.85-13.466-.953-3.801-3.307-4.488-4.415-8.244-.165-.549-.133-1.594.293-2.789" fill="#FFB487"></path><path d="M173.36 157.003a.652.652 0 01-.16-.019c-5.83-1.378-7.186-8.193-7.992-12.26-.133-.665-.248-1.242-.362-1.704-.453-1.814-1.25-2.863-2.098-3.976-.852-1.126-1.736-2.29-2.313-4.241-.233-.792-.119-2.024.307-3.215a.69.69 0 01.88-.417.687.687 0 01.416.88c-.366 1.035-.403 1.951-.284 2.367.504 1.709 1.274 2.726 2.089 3.802.888 1.172 1.809 2.386 2.336 4.475.123.494.242 1.085.375 1.772.747 3.747 1.993 10.017 6.962 11.194a.68.68 0 01-.156 1.342z" fill="#D47455"></path><path d="M275.431 222.506c-5.918 0-11.826-1.594-16.901-4.726a.686.686 0 01.719-1.168c8.455 5.221 19.365 5.981 28.461 1.974a.69.69 0 01.907.352.69.69 0 01-.353.907c-4.049 1.782-8.441 2.661-12.833 2.661z" fill="#135094"></path><path fill-rule="evenodd" clip-rule="evenodd" d="M281.811 185.018c.087-.22.027-.389-.293-.412l-1.054-.069c-.265-.018-.398.12-.481.266 0 0-.632 1.273-1.447 2.075-.261.229-.38.302-.513.293-.073-.005-.16-.092-.142-.316l.142-2.098c.018-.265-.055-.394-.279-.407l-1.658-.11c-.165-.009-.275.105-.284.229-.019.256.357.343.352 1.062l-.105 1.557c-.023.339-.087.394-.22.385-.357-.023-1.14-1.401-1.562-2.945-.082-.302-.178-.421-.444-.439l-1.067-.074c-.307-.018-.366.119-.38.275-.018.275.247 1.695 1.433 3.623.788 1.319 1.979 2.075 3.097 2.152.677.046.769-.1.783-.357l.064-.952c.018-.307.087-.353.302-.339.156.009.426.11 1.008.755.668.765.769 1.1 1.168 1.127l1.053.069c.307.018.463-.124.398-.426-.073-.302-.393-.756-.806-1.301-.224-.302-.572-.646-.677-.806-.142-.215-.092-.293.032-.472-.01-.004 1.406-1.74 1.58-2.345z" fill="#2787F5"></path><path d="M272.624 55.308c-6.811-5.45-28.598-15.91-43.598-4.483-11.633 8.862-8.917 27.283 4.251 33.64 13.167 6.357 43.492-7.896 43.492-7.896l-4.145-21.26z" fill="#FF5773"></path><path d="M348.231 218.298s11.885 31.703 8.083 41.394c-5.143 13.122-14.198 11.249-37.826 11.249-26.175 0-44.33-4.53-53.293-3.898-8.963.637-30.696 9.133-35.734 9.687-5.193-2.336 4.695-6.151 4.695-6.151s-14.391 5.482-16.612 2.757c-2.221-2.729 10.901-8.656 10.901-8.656s-7.539 1.837-15.124 2.991c-1.255.192-2.29-1.054-1.818-2.231 1.136-2.821 5.574-6.293 15.673-9.448-6.637.458-11.446.957-14.047 1.255-1.017.114-1.699-1.003-1.141-1.86 1.452-2.23 4.548-5.478 10.448-5.949 11.12-.889 25.597-1.741 25.345-3.646l-1.914-4.708c3.298-2.158 5.212-.184 14.505 3.934 9.572 4.241 28.511 5.024 38.404 4.012 9.897-1.017 23.468-4.314 23.468-4.314l-9.751-19.951c8.033-2.624 25.35-8.13 35.738-6.467z" fill="#FFB487"></path><mask id="trailing_section_art_svg__a" style="mask-type:alpha" maskUnits="userSpaceOnUse" x="211" y="217" width="147" height="60"><path d="M348.231 218.297s11.885 31.703 8.083 41.395c-5.143 13.122-14.198 11.248-37.826 11.248-26.175 0-44.33-4.529-53.293-3.897-8.963.636-30.696 9.132-35.734 9.686-5.193-2.335 4.695-6.15 4.695-6.15s-14.391 5.482-16.612 2.757c-2.221-2.73 10.901-8.657 10.901-8.657s-7.539 1.837-15.124 2.991c-1.255.193-2.29-1.053-1.818-2.23 1.136-2.822 5.574-6.293 15.673-9.449-6.637.458-11.446.957-14.047 1.255-1.017.115-1.699-1.003-1.141-1.859 1.452-2.231 4.548-5.478 10.448-5.95 11.12-.888 25.597-1.74 25.345-3.646l-1.914-4.708c3.298-2.157 5.212-.183 14.505 3.934 9.572 4.241 28.511 5.025 38.404 4.012 9.897-1.016 23.468-4.314 23.468-4.314l-9.751-19.951c8.033-2.624 25.35-8.129 35.738-6.467z" fill="#FFB487"></path></mask><g mask="url(#trailing_section_art_svg__a)" fill="#5C5E73"><path d="M344.484 274.757a.687.687 0 01-.481-1.177c7.09-6.953 8.111-12.284 6.834-14.734-.609-1.173-1.768-1.695-3.17-1.434-2.803.522-5.935 3.893-7.717 10.301-.22 1.85-.591 3.879-1.141 6.096l-1.351-.243c.257-2.308.651-4.356 1.141-6.16.875-7.722-1.054-12.005-3.348-13.406-1.37-.838-2.881-.682-4.145.426-2.693 2.354-3.701 8.606.114 17.262l-1.255.559c-1.126-2.501-7.909-6.861-12.04-6.554-1.585.114-2.574.875-3.01 2.326-.018.944.28 1.727.907 2.387 1.347 1.406 3.898 1.914 5.835 1.919a.686.686 0 110 1.374c-1.076-.005-4.754-.183-6.824-2.345-.907-.948-1.342-2.116-1.287-3.472l.027-.16c.587-2.061 2.057-3.238 4.255-3.399 3.358-.242 7.896 2.011 10.782 4.379-2.565-7.928-.898-13.131 1.594-15.307 1.694-1.484 3.906-1.699 5.766-.563 2.217 1.356 4.062 4.649 4.213 10.214 2.08-4.416 4.869-6.536 7.228-6.976 2.01-.375 3.742.426 4.639 2.148 1.567 3.009.527 8.881-7.09 16.351a.685.685 0 01-.476.188zm-32.307-18.233c-.202 0-.408-.014-.618-.046-3.161-.467-7.209-4.653-9.101-15a.69.69 0 011.356-.247c1.763 9.646 5.386 13.507 7.951 13.887 1.213.178 2.226-.403 2.858-1.635 1.713-3.335.114-10.475-7.438-18.275l.989-.957c9.16 9.467 17.129 11.849 20.656 10.058 1.154-.586 1.672-1.58 1.461-2.808-.453-2.633-4.795-7.552-18.215-9.297l.179-1.36c2.858.366 10.277-2.794 12.27-6.435.723-1.319.623-2.515-.307-3.655-1.086-.761-2.707-1.003-4.58-.683-2.286.39-4.566 1.585-5.423 2.844a.691.691 0 01-.953.184.688.688 0 01-.183-.953c1.063-1.562 3.664-2.968 6.325-3.426 2.281-.389 4.301-.041 5.689.98l.119.11c1.342 1.599 1.52 3.422.513 5.263-1.562 2.848-5.735 5.313-9.307 6.471 10.278 2.13 14.652 6.421 15.22 9.733.311 1.814-.509 3.407-2.194 4.264-3.211 1.63-9.11.513-16.177-4.869 3.559 5.698 4.035 10.589 2.574 13.443-.788 1.539-2.13 2.409-3.664 2.409z"></path><path d="M354.794 238.629c-.6 0-1.117-.128-1.507-.27-2.015-.733-3.668-2.812-4.497-5.4-1.067 2.537-3.041 4.145-4.91 4.878-2.643 1.039-5.336.6-7.035-1.155-1.191-1.232-2.748-4.048-.875-9.673-3.412 1.864-6.499 1.466-8.413.321-1.814-1.085-2.744-2.895-2.437-4.717.44-2.62 3.27-4.663 7.759-5.602a.689.689 0 01.284 1.347c-3.903.815-6.339 2.45-6.683 4.484-.21 1.254.477 2.523 1.791 3.311 1.86 1.117 5.121 1.328 8.688-1.424a.687.687 0 011.054.815c-1.96 4.561-2.024 8.276-.17 10.186 1.306 1.346 3.431 1.662 5.547.829 2.281-.898 4.754-3.357 4.836-7.553a.695.695 0 01.701-.673c.38.009.683.321.673.701-.082 4.053 2.057 7.268 4.168 8.033 1.379.499 2.721-.009 3.893-1.465a.687.687 0 111.072.861c-1.383 1.703-2.808 2.166-3.939 2.166zm-8.468-14.885c-1.654 0-3.298-.985-3.999-2.501-.833-1.804-.229-4.135 1.374-5.308a.692.692 0 01.962.147.692.692 0 01-.146.962c-1.077.787-1.498 2.413-.939 3.622.558 1.209 2.07 1.942 3.366 1.635 1.296-.306 2.313-1.644 2.267-2.977a.687.687 0 01.664-.71c.385 0 .696.284.71.665.069 1.983-1.388 3.902-3.32 4.36a4.09 4.09 0 01-.939.105zm3.792 28.886c-1.081 0-2.126-.233-3.023-.691-1.466-.747-2.547-2.107-2.89-3.637-.385-1.717.21-3.499 1.52-4.539 1.461-1.154 3.669-1.195 5.034-.091.742.6 1.163 1.548 1.126 2.532-.032.93-.462 1.75-1.181 2.254-.715.504-1.64.655-2.418.398-.926-.307-1.558-1.209-1.461-2.093a.688.688 0 01.755-.609.685.685 0 01.609.756c-.027.247.216.54.527.646.366.119.838.036 1.195-.216.362-.256.582-.682.596-1.177.018-.559-.211-1.09-.618-1.42-.857-.691-2.373-.645-3.316.101-.884.701-1.301 1.97-1.035 3.16.256 1.136 1.067 2.153 2.175 2.716 1.228.623 2.872.71 4.401.229 1.338-.421 2.639-1.255 3.861-2.473 1.842-1.836 3.11-4.104 3.664-6.558a.686.686 0 011.338.302c-.614 2.707-2.006 5.207-4.035 7.227-1.379 1.374-2.867 2.322-4.42 2.808a8.105 8.105 0 01-2.404.375zm-49.749 21.046c-2.015 0-3.989-.403-5.812-1.191a.685.685 0 11.545-1.259c2.309.998 4.887 1.31 7.457.907 1.703-.271 3.142-.829 4.273-1.663 1.291-.953 2.194-2.331 2.409-3.691.197-1.228-.142-2.478-.911-3.358-.802-.916-2.075-1.328-3.161-1.026-1.158.321-2.093 1.521-2.038 2.62.028.522.321 1.022.783 1.338.408.274.884.352 1.301.21.417-.142.765-.471.879-.838.101-.311.005-.682-.21-.806a.684.684 0 01-.248-.939c.193-.33.61-.44.939-.247.77.449 1.127 1.484.829 2.413-.252.779-.92 1.439-1.745 1.723-.829.284-1.749.146-2.519-.376-.815-.554-1.332-1.452-1.383-2.405-.087-1.754 1.246-3.512 3.041-4.012 1.613-.448 3.403.119 4.562 1.448 1.035 1.181 1.493 2.853 1.232 4.479-.279 1.731-1.356 3.398-2.954 4.58-1.31.966-2.95 1.608-4.873 1.914a16.8 16.8 0 01-2.396.179z"></path></g><path d="M232.791 271.906a.696.696 0 01-.632-.412.69.69 0 01.353-.907c1.081-.477 2.386-.93 3.65-1.374 1.241-.435 2.519-.88 3.554-1.333a.689.689 0 01.554 1.259c-1.08.477-2.386.93-3.65 1.374-1.241.436-2.519.88-3.554 1.333a.666.666 0 01-.275.06zm-4.346-6.54a.697.697 0 01-.655-.477.69.69 0 01.445-.865l10.094-3.248a.687.687 0 11.421 1.31l-10.094 3.248a.856.856 0 01-.211.032z" fill="#D47455"></path><path d="M203.942 299.026l-20.349-9.06 28.602-7.245 20.345 9.054-28.598 7.251z" fill="#E5F1FF"></path><path d="M210.267 294.184c-.018 0-.037 0-.051-.004l-2.917-.33a.46.46 0 01-.202-.838l.133-.087a9.788 9.788 0 00-5.056-.38.46.46 0 01-.527-.371.457.457 0 01.367-.532c.018-.004.036-.004.055-.009a1.37 1.37 0 00.851-.614 1.56 1.56 0 00.243-.65l-5.679.834a.457.457 0 01-.133-.903l6.169-.907a.46.46 0 01.513.344c.138.568.028 1.191-.302 1.727 1.608-.042 3.22.284 4.676.948a.459.459 0 01.193.664l1.731.197c.252.027.43.256.403.508a.484.484 0 01-.467.403zm6.568-2.826h-.014c-.87-.027-1.667-.595-2.02-1.374-1.113.257-2.327.399-3.316-.242-.641-.417-1.03-1.113-1.049-1.809l-2.464.1a.451.451 0 01-.476-.439.46.46 0 01.44-.477l3-.119a.446.446 0 01.38.179.468.468 0 01.073.417c-.147.462.114 1.071.591 1.383.806.522 1.928.297 3.009.023a.464.464 0 01.357.055.464.464 0 01.206.297c.119.596.692 1.077 1.296 1.095.252.009.449.22.445.472a.456.456 0 01-.458.439z" fill="#5C5E73"></path><path d="M227.203 257.035a.686.686 0 01-.082-1.369l10.218-1.264a.685.685 0 11.169 1.36l-10.218 1.264a.559.559 0 01-.087.009z" fill="#D47455"></path><path d="M277.483 94.83c2.286-2.858 5.167-3.023 6.696-2.785 8.263 1.296 3.573 17.432-9.59 14.523.458-4.561.65-7.474 2.894-11.738z" fill="#FFB487"></path><path d="M280.607 99.364a.689.689 0 01-.591-1.04c.44-.741 2.116-3.045 5.263-1.62a.687.687 0 01.343.906.687.687 0 01-.906.344c-1.974-.893-3.051.284-3.513 1.067a.69.69 0 01-.596.343z" fill="#D47455"></path><path d="M280.217 110.699c1.758 0 3.183-1.634 3.183-3.65s-1.425-3.651-3.183-3.651c-1.758 0-3.183 1.635-3.183 3.651s1.425 3.65 3.183 3.65z" fill="#252833"></path><path d="M251.304 95.726c-.344 0-.683-.156-.912-.449-1.978-2.583-4.758-3.188-8.5-1.855a1.14 1.14 0 01-1.461-.696 1.141 1.141 0 01.696-1.461c4.736-1.686 8.464-.806 11.088 2.62a1.143 1.143 0 01-.911 1.84z" fill="#fff"></path><path d="M49 231.88h2.592c5.232 0 7.92-2.544 7.92-7.488v-9.12c0-2.112.816-3.312 3.792-3.312v-5.04c-2.976 0-3.792-1.2-3.792-3.264v-9.168c0-4.944-2.688-7.488-7.92-7.488H49v5.04h2.592c1.68 0 2.4.72 2.4 2.448v9.168c0 3.552 1.632 4.8 4.176 5.376v.768c-2.592.576-4.176 1.872-4.176 5.472v9.12c0 1.728-.72 2.448-2.4 2.448H49v5.04z" fill="#FF5773"></path><rect y="49" width="42" height="42" rx="10.5" fill="#29CC90"></rect><path fill-rule="evenodd" clip-rule="evenodd" d="M26.157 61.884c-.383.664-.383 1.556-.383 3.34v4.773h4.772c1.785 0 2.677 0 3.341-.383a2.864 2.864 0 001.048-1.049c.384-.664.384-1.556.384-3.34 0-1.785 0-2.677-.384-3.341a2.864 2.864 0 00-1.048-1.049c-.664-.383-1.556-.383-3.34-.383-1.785 0-2.677 0-3.342.383a2.865 2.865 0 00-1.048 1.049zM6.682 65.225c0-1.784 0-2.676.383-3.34a2.864 2.864 0 011.048-1.049c.665-.384 1.557-.384 3.341-.384 1.785 0 2.677 0 3.341.384.436.251.797.613 1.048 1.048.384.665.384 1.557.384 3.341v4.773h-4.773c-1.784 0-2.676 0-3.34-.384a2.864 2.864 0 01-1.049-1.048c-.383-.665-.383-1.557-.383-3.34zM16.226 70h9.546v4.773c0 1.784 0 2.676-.384 3.34a2.864 2.864 0 01-1.048 1.049c-.665.383-1.557.383-3.34.383-1.785 0-2.677 0-3.342-.383a2.864 2.864 0 01-1.048-1.048c-.384-.665-.384-1.557-.384-3.341V70z" fill="#fff"></path></svg>