<svg width="500" height="100" xmlns="http://www.w3.org/2000/svg">
 <g>
  <title>Layer 1</title>
  <g id="svg_9">
   <g id="svg_4" stroke="null">
    <path id="svg_1" d="m78.43526,83.66715a10.1006,10.1006 0 1 0 -9.4811,-13.46747l-27.55444,0l0,3.36687a16.83433,16.83433 0 1 1 -16.83433,-16.83433l0,-6.73373a23.56807,23.56807 0 1 0 23.32902,26.93493l21.05975,0a10.0703,10.0703 0 0 0 9.4811,6.73373z" fill="#00dc82" stroke="null"/>
    <path id="svg_3" d="m78.43526,49.99849a23.64887,23.64887 0 0 0 -8.65285,1.63966l-10.6595,-18.65244a10.25884,10.25884 0 1 0 -5.83141,3.36687l13.86812,24.26838l2.92244,-1.6767a16.83433,16.83433 0 1 1 -6.2287,23.0361l-5.83141,3.3736a23.56807,23.56807 0 1 0 20.41331,-35.35547z" fill="#00dc82" stroke="null"/>
    <path id="svg_5" d="m26.35656,63.64776a10.20161,10.20161 0 1 0 5.83478,3.36013l12.20489,-21.3594l1.6767,-2.92244l-2.92244,-1.67333a16.83433,16.83433 0 1 1 22.9351,-6.2085l5.82805,3.3736a23.56807,23.56807 0 1 0 -34.8336,6.85494c-1.53866,2.49822 -3.71029,6.29941 -6.97951,12.02645l-3.74396,6.54856l-0.00001,-0.00001z" fill="#80eec0" stroke="null"/>
   </g>
   <g id="svg_7">
    <text fill="#222222" x="125.39578" y="68.66666" id="svg_2" font-size="72" font-family="'Jura'" text-anchor="start" xml:space="preserve" font-weight="bold" stroke-width="2" stroke="#222222">quick</text>
    <text fill="#00dc82" stroke-width="2" x="313.55205" y="68.66667" id="svg_8" font-size="72" font-family="'Jura'" text-anchor="start" xml:space="preserve" stroke="#00dc82">sales</text>
   </g>
  </g>
 </g>

</svg>